<svg version="1.1" viewBox="0.0 0.0 1122.5196850393702 793.7007874015748" fill="none" stroke="none" stroke-linecap="square" stroke-miterlimit="10" xmlns:xlink="http://www.w3.org/1999/xlink" xmlns="http://www.w3.org/2000/svg"><clipPath id="p.0"><path d="m0 0l1122.5197 0l0 793.7008l-1122.5197 0l0 -793.7008z" clip-rule="nonzero"/></clipPath><g clip-path="url(#p.0)"><path fill="#ffffff" d="m0 0l1122.5197 0l0 793.7008l-1122.5197 0z" fill-rule="evenodd"/><path fill="#ffffff" d="m397.3146 111.20551l0 0c0 -36.782173 29.81784 -66.60002 66.600006 -66.60002l0 0c17.663422 0 34.603394 7.0167694 47.093323 19.506695c12.489929 12.489922 19.506714 29.429901 19.506714 47.093323l0 0c0 36.782173 -29.817871 66.60001 -66.60004 66.60001l0 0c-36.782166 0 -66.600006 -29.81784 -66.600006 -66.60001z" fill-rule="evenodd"/><path stroke="#000000" stroke-width="3.0" stroke-linejoin="round" stroke-linecap="butt" d="m397.3146 111.20551l0 0c0 -36.782173 29.81784 -66.60002 66.600006 -66.60002l0 0c17.663422 0 34.603394 7.0167694 47.093323 19.506695c12.489929 12.489922 19.506714 29.429901 19.506714 47.093323l0 0c0 36.782173 -29.817871 66.60001 -66.60004 66.60001l0 0c-36.782166 0 -66.600006 -29.81784 -66.600006 -66.60001z" fill-rule="evenodd"/><path fill="#000000" d="m455.13336 105.98926l4.03125 0q5.96875 0 9.59375 -1.90625q0.8125 -0.4375 1.53125 -1.03125q3.15625 -2.65625 3.15625 -6.59375q0 -4.125 -3.3125 -6.46875q-3.03125 -2.09375 -7.78125 -2.09375q-7.125 0 -13.09375 5.625l-3.65625 -3.90625q2.5 -2.4375 5.6875 -4.0q5.375 -2.65625 11.34375 -2.65625q6.125 0 10.59375 2.46875q6.5625 3.625 6.5625 10.53125q0 5.25 -3.84375 8.78125q-2.96875 2.78125 -8.5625 3.5l0 0.25q6.625 0.6875 10.28125 3.90625q3.96875 3.53125 3.96875 9.4375q0 7.4375 -5.875 11.46875q-5.0625 3.46875 -13.3125 3.46875q-11.4375 0 -18.5625 -7.3125l3.71875 -3.9375q2.03125 2.125 4.53125 3.46875q4.84375 2.65625 10.3125 2.65625q6.15625 0 9.65625 -2.8125q3.125 -2.53125 3.125 -7.09375q0 -10.875 -16.1875 -10.875l-3.90625 0l0 -4.875z" fill-rule="nonzero"/><path fill="#ffffff" d="m122.18632 354.79166l0 0c0 -36.782196 29.817833 -66.60004 66.60001 -66.60004l0 0c17.663422 0 34.603394 7.0167847 47.093323 19.506714c12.489914 12.489899 19.506683 29.429901 19.506683 47.093323l0 0c0 36.782166 -29.81784 66.600006 -66.600006 66.600006l0 0c-36.78218 0 -66.60001 -29.81784 -66.60001 -66.600006z" fill-rule="evenodd"/><path stroke="#000000" stroke-width="3.0" stroke-linejoin="round" stroke-linecap="butt" d="m122.18632 354.79166l0 0c0 -36.782196 29.817833 -66.60004 66.60001 -66.60004l0 0c17.663422 0 34.603394 7.0167847 47.093323 19.506714c12.489914 12.489899 19.506683 29.429901 19.506683 47.093323l0 0c0 36.782166 -29.81784 66.600006 -66.600006 66.600006l0 0c-36.78218 0 -66.60001 -29.81784 -66.60001 -66.600006z" fill-rule="evenodd"/><path fill="#000000" d="m187.25508 379.32538l0 -46.28125q-5.21875 2.15625 -12.53125 3.78125l-1.28125 -4.59375q10.3125 -2.5625 15.40625 -5.6875l4.15625 0l0 52.78125l-5.75 0z" fill-rule="nonzero"/><path fill="#ffffff" d="m553.45056 423.13806l0 0c0 -36.782166 29.817871 -66.600006 66.60004 -66.600006l0 0c17.663391 0 34.603394 7.016754 47.093323 19.506683c12.489929 12.489929 19.506653 29.429901 19.506653 47.093323l0 0c0 36.782166 -29.81781 66.600006 -66.599976 66.600006l0 0c-36.782166 0 -66.60004 -29.81784 -66.60004 -66.600006z" fill-rule="evenodd"/><path stroke="#000000" stroke-width="3.0" stroke-linejoin="round" stroke-linecap="butt" d="m553.45056 423.13806l0 0c0 -36.782166 29.817871 -66.600006 66.60004 -66.600006l0 0c17.663391 0 34.603394 7.016754 47.093323 19.506683c12.489929 12.489929 19.506653 29.429901 19.506653 47.093323l0 0c0 36.782166 -29.81781 66.600006 -66.599976 66.600006l0 0c-36.782166 0 -66.60004 -29.81784 -66.60004 -66.600006z" fill-rule="evenodd"/><path fill="#000000" d="m623.14435 395.51556l7.03125 0l0 34.625l9.90625 0l0 4.9375l-9.90625 0l0 12.59375l-5.625 0l0 -12.59375l-26.375 0l0 -4.875l24.96875 -34.6875zm1.40625 34.625l0 -18.4375q0 -5.3125 0.3125 -11.0625l-0.25 0q-2.75 5.4375 -4.6875 8.125l-15.21875 21.375l19.84375 0z" fill-rule="nonzero"/><path fill="#ffffff" d="m299.35165 656.2076l0 0c0 -36.782166 29.81784 -66.599976 66.600006 -66.599976l0 0c17.663422 0 34.603394 7.0167847 47.093323 19.506653c12.489929 12.489929 19.506683 29.429932 19.506683 47.093323l0 0c0 36.782166 -29.81784 66.60004 -66.600006 66.60004l0 0c-36.782166 0 -66.600006 -29.817871 -66.600006 -66.60004z" fill-rule="evenodd"/><path stroke="#000000" stroke-width="3.0" stroke-linejoin="round" stroke-linecap="butt" d="m299.35165 656.2076l0 0c0 -36.782166 29.81784 -66.599976 66.600006 -66.599976l0 0c17.663422 0 34.603394 7.0167847 47.093323 19.506653c12.489929 12.489929 19.506683 29.429932 19.506683 47.093323l0 0c0 36.782166 -29.81784 66.60004 -66.600006 66.60004l0 0c-36.782166 0 -66.600006 -29.817871 -66.600006 -66.60004z" fill-rule="evenodd"/><path fill="#000000" d="m347.82666 680.74133l0 -5.1875q2.9375 -10.34375 16.0 -19.1875l1.78125 -1.21875q5.78125 -3.90625 7.71875 -5.84375q3.5 -3.4375 3.5 -7.5q0 -3.8125 -2.875 -6.21875q-3.0625 -2.59375 -8.03125 -2.59375q-7.65625 0 -13.5625 6.71875l-4.03125 -3.5q6.625 -8.28125 17.625 -8.28125q6.09375 0 10.5 2.59375q6.78125 3.96875 6.78125 11.53125q0 5.375 -4.28125 9.5625q-2.0625 2.0 -8.375 6.375l-1.0625 0.75l-2.21875 1.53125q-11.8125 8.09375 -13.375 15.03125l30.0 0l0 5.4375l-36.09375 0z" fill-rule="nonzero"/><path fill="#ffffff" d="m867.13336 682.4953l0 0c0 -36.782166 29.81781 -66.60004 66.599976 -66.60004l0 0c17.663452 0 34.603394 7.0167847 47.093323 19.506714c12.489929 12.489929 19.506714 29.42987 19.506714 47.093323l0 0c0 36.782166 -29.817871 66.599976 -66.60004 66.599976l0 0c-36.782166 0 -66.599976 -29.81781 -66.599976 -66.599976z" fill-rule="evenodd"/><path stroke="#000000" stroke-width="3.0" stroke-linejoin="round" stroke-linecap="butt" d="m867.13336 682.4953l0 0c0 -36.782166 29.81781 -66.60004 66.599976 -66.60004l0 0c17.663452 0 34.603394 7.0167847 47.093323 19.506714c12.489929 12.489929 19.506714 29.42987 19.506714 47.093323l0 0c0 36.782166 -29.817871 66.599976 -66.60004 66.599976l0 0c-36.782166 0 -66.599976 -29.81781 -66.599976 -66.599976z" fill-rule="evenodd"/><path fill="#000000" d="m919.92084 655.1853l29.125 0l0 5.125l-24.0625 0l-2.0625 18.0625l0.25 0q4.84375 -4.1875 11.875 -4.1875q6.71875 0 11.375 3.875q5.5 4.59375 5.5 12.65625q0 5.1875 -2.59375 9.28125q-3.0625 4.90625 -8.875 6.90625q-3.21875 1.09375 -7.09375 1.09375q-10.71875 0 -17.34375 -6.09375l3.1875 -4.03125q2.59375 2.3125 6.125 3.5625q4.03125 1.4375 8.03125 1.4375q5.5625 0 9.125 -3.75q3.21875 -3.40625 3.21875 -8.40625q0 -5.03125 -2.96875 -8.1875q-3.28125 -3.53125 -9.03125 -3.53125q-4.125 0 -7.71875 2.0q-2.40625 1.34375 -3.75 3.3125l-5.3125 -0.78125l3.0 -28.34375z" fill-rule="nonzero"/><path fill="#000000" fill-opacity="0.0" d="m416.8213 158.29883l-180.94487 149.38583" fill-rule="evenodd"/><path stroke="#000000" stroke-width="3.0" stroke-linejoin="round" stroke-linecap="butt" d="m416.8213 158.29883l-180.94487 149.38583" fill-rule="evenodd"/><path fill="#000000" fill-opacity="0.0" d="m511.00793 158.29883l109.03937 198.23624" fill-rule="evenodd"/><path stroke="#000000" stroke-width="3.0" stroke-linejoin="round" stroke-linecap="butt" d="m511.00793 158.29883l109.03937 198.23624" fill-rule="evenodd"/><path fill="#000000" fill-opacity="0.0" d="m255.38634 354.79166l298.07874 68.346436" fill-rule="evenodd"/><path stroke="#000000" stroke-width="3.0" stroke-linejoin="round" stroke-linecap="butt" d="m255.38634 354.79166l298.07874 68.346436" fill-rule="evenodd"/><path fill="#000000" fill-opacity="0.0" d="m413.04498 609.11426l159.90552 -138.89761" fill-rule="evenodd"/><path stroke="#000000" stroke-width="3.0" stroke-linejoin="round" stroke-linecap="butt" d="m413.04498 609.11426l159.90552 -138.89761" fill-rule="evenodd"/><path fill="#000000" fill-opacity="0.0" d="m886.64 635.402l-219.49603 -165.16537" fill-rule="evenodd"/><path stroke="#000000" stroke-width="3.0" stroke-linejoin="round" stroke-linecap="butt" d="m886.64 635.402l-219.49603 -165.16537" fill-rule="evenodd"/></g></svg>