<svg version="1.1" viewBox="0.0 0.0 1122.5196850393702 793.7007874015748" fill="none" stroke="none" stroke-linecap="square" stroke-miterlimit="10" xmlns:xlink="http://www.w3.org/1999/xlink" xmlns="http://www.w3.org/2000/svg"><clipPath id="g31749f8e58c_0_221.0"><path d="m0 0l1122.5197 0l0 793.7008l-1122.5197 0l0 -793.7008z" clip-rule="nonzero"/></clipPath><g clip-path="url(#g31749f8e58c_0_221.0)"><path fill="#ffffff" d="m0 0l1122.5197 0l0 793.7008l-1122.5197 0z" fill-rule="evenodd"/><path fill="#000000" fill-opacity="0.0" d="m46.280838 243.67455l442.49103 0" fill-rule="evenodd"/><path stroke="#434343" stroke-width="4.0" stroke-linejoin="round" stroke-linecap="butt" d="m46.280838 243.67455l442.49103 0" fill-rule="evenodd"/><path fill="#ffffff" d="m355.77643 198.36386l78.35416 45.31015l-78.35416 45.31015z" fill-rule="evenodd"/><path stroke="#434343" stroke-width="4.0" stroke-linejoin="round" stroke-linecap="butt" d="m355.77643 198.36386l78.35416 45.31015l-78.35416 45.31015z" fill-rule="evenodd"/><path fill="#ffffff" d="m434.13058 243.67401l0 0c0 -5.6539307 4.588623 -10.23735 10.248993 -10.23735l0 0c2.7182007 0 5.3250732 1.0785828 7.247162 2.9984589c1.9220581 1.9198761 3.0018616 4.523773 3.0018616 7.2388916l0 0c0 5.6539307 -4.5886536 10.237335 -10.249023 10.237335l0 0c-5.66037 0 -10.248993 -4.5834045 -10.248993 -10.237335z" fill-rule="evenodd"/><path stroke="#434343" stroke-width="4.0" stroke-linejoin="round" stroke-linecap="butt" d="m434.13058 243.67401l0 0c0 -5.6539307 4.588623 -10.23735 10.248993 -10.23735l0 0c2.7182007 0 5.3250732 1.0785828 7.247162 2.9984589c1.9220581 1.9198761 3.0018616 4.523773 3.0018616 7.2388916l0 0c0 5.6539307 -4.5886536 10.237335 -10.249023 10.237335l0 0c-5.66037 0 -10.248993 -4.5834045 -10.248993 -10.237335z" fill-rule="evenodd"/><path fill="#000000" fill-opacity="0.0" d="m221.23645 241.73055l0 271.88037" fill-rule="evenodd"/><path stroke="#434343" stroke-width="4.0" stroke-linejoin="round" stroke-linecap="butt" d="m221.23645 241.73055l0 271.88037" fill-rule="evenodd"/><path fill="#000000" fill-opacity="0.0" d="m178.81824 303.10712l0 268.94708" fill-rule="evenodd"/><path stroke="#434343" stroke-width="4.0" stroke-linejoin="round" stroke-linecap="butt" d="m178.81824 303.10712l0 268.94708" fill-rule="evenodd"/><path fill="#000000" d="m166.87404 573.9621l0 0c0 -5.901428 4.7840576 -10.685486 10.685501 -10.685486l0 0c2.833969 0 5.5518646 1.1257935 7.555786 3.1296997c2.0039215 2.0039062 3.129715 4.7218018 3.129715 7.555786l0 0c0 5.901428 -4.7840576 10.685486 -10.685501 10.685486l0 0c-5.9014435 0 -10.685501 -4.7840576 -10.685501 -10.685486z" fill-rule="evenodd"/><path stroke="#000000" stroke-width="1.0" stroke-linejoin="round" stroke-linecap="butt" d="m166.87404 573.9621l0 0c0 -5.901428 4.7840576 -10.685486 10.685501 -10.685486l0 0c2.833969 0 5.5518646 1.1257935 7.555786 3.1296997c2.0039215 2.0039062 3.129715 4.7218018 3.129715 7.555786l0 0c0 5.901428 -4.7840576 10.685486 -10.685501 10.685486l0 0c-5.9014435 0 -10.685501 -4.7840576 -10.685501 -10.685486z" fill-rule="evenodd"/><path fill="#000000" d="m210.60016 243.67337l0 0c0 -5.9014435 4.7840576 -10.685516 10.685501 -10.685516l0 0c2.833969 0 5.5518646 1.1257935 7.555786 3.129715c2.0039215 2.0039215 3.129715 4.721817 3.129715 7.5558014l0 0c0 5.901428 -4.7840576 10.685501 -10.685501 10.685501l0 0c-5.9014435 0 -10.685501 -4.784073 -10.685501 -10.685501z" fill-rule="evenodd"/><path stroke="#000000" stroke-width="1.0" stroke-linejoin="round" stroke-linecap="butt" d="m210.60016 243.67337l0 0c0 -5.9014435 4.7840576 -10.685516 10.685501 -10.685516l0 0c2.833969 0 5.5518646 1.1257935 7.555786 3.129715c2.0039215 2.0039215 3.129715 4.721817 3.129715 7.5558014l0 0c0 5.901428 -4.7840576 10.685501 -10.685501 10.685501l0 0c-5.9014435 0 -10.685501 -4.784073 -10.685501 -10.685501z" fill-rule="evenodd"/><path fill="#000000" fill-opacity="0.0" d="m85.58268 145.95538l71.77952 0l0 96.944885l-71.77952 0z" fill-rule="evenodd"/><path fill="#000000" d="m115.36393 165.89539l8.3125 0l20.249992 52.09375l-8.96875 0l-5.3125 -14.1875l-20.218742 0l-5.3125 14.1875l-8.96875 0l20.21875 -52.09375zm12.03125 31.1875l-4.84375 -13.1875q-2.0625 -5.5625 -2.90625 -9.8125l-0.25 0q-0.8125 4.25 -2.875 9.8125l-4.875 13.1875l15.75 0z" fill-rule="nonzero"/><path fill="#000000" fill-opacity="0.0" d="m85.58268 481.95538l71.77952 0l0 96.944885l-71.77952 0z" fill-rule="evenodd"/><path fill="#000000" d="m100.92643 502.1454l16.75 0q7.84375 0 12.156242 1.8125q8.15625 3.375 8.15625 11.15625q0 4.96875 -3.125 8.125q-3.0625 3.03125 -8.093742 3.75l0 0.21875q5.6249924 0.96875 8.906242 3.5q4.28125 3.34375 4.28125 8.875q0 7.40625 -6.4375 11.40625q-4.875 3.0 -13.656242 3.0l-18.9375 0l0 -51.84375zm8.125 6.40625l0 15.25l7.28125 0q12.812492 0 12.812492 -7.65625q0 -4.15625 -4.1562424 -6.1875q-2.875 -1.40625 -8.25 -1.40625l-7.6875 0zm0 21.71875l0 17.1875l9.03125 0q5.46875 0 8.46875 -1.59375q4.3124924 -2.3125 4.3124924 -6.90625q0 -5.03125 -5.6874924 -7.3125q-3.46875 -1.375 -8.625 -1.375l-7.5 0z" fill-rule="nonzero"/><path fill="#000000" fill-opacity="0.0" d="m982.31494 299.90552l71.77954 0l0 96.944885l-71.77954 0z" fill-rule="evenodd"/><path fill="#000000" d="m993.87744 320.09552l10.5625 0l13.125 19.96875l13.125 -19.96875l10.5625 0l-18.3125 25.65625l19.78125 26.1875l-10.6875 0l-14.46875 -20.34375l-14.46875 20.34375l-10.6875 0l19.78125 -26.1875l-18.3125 -25.65625z" fill-rule="nonzero"/><path fill="#000000" fill-opacity="0.0" d="m178.97375 305.4147l361.2119 0" fill-rule="evenodd"/><path stroke="#434343" stroke-width="4.0" stroke-linejoin="round" stroke-linecap="butt" d="m178.97375 305.4147l361.2119 0" fill-rule="evenodd"/><path fill="#000000" fill-opacity="0.0" d="m484.50287 243.83507l55.656067 0" fill-rule="evenodd"/><path stroke="#434343" stroke-width="4.0" stroke-linejoin="round" stroke-linecap="butt" d="m484.50287 243.83507l55.656067 0" fill-rule="evenodd"/><path fill="#000000" fill-opacity="0.0" d="m535.9304 274.62494l238.58575 0" fill-rule="evenodd"/><path stroke="#434343" stroke-width="4.0" stroke-linejoin="round" stroke-linecap="butt" d="m535.9304 274.62494l238.58575 0" fill-rule="evenodd"/><path fill="#ffffff" d="m535.9304 206.05486l84.28406 0l0 0c46.548767 0 84.28406 30.699875 84.28406 68.57008c0 37.87021 -37.73529 68.57007 -84.28406 68.57007l-84.28406 0z" fill-rule="evenodd"/><path stroke="#434343" stroke-width="4.0" stroke-linejoin="round" stroke-linecap="butt" d="m535.9304 206.05486l84.28406 0l0 0c46.548767 0 84.28406 30.699875 84.28406 68.57008c0 37.87021 -37.73529 68.57007 -84.28406 68.57007l-84.28406 0z" fill-rule="evenodd"/><path fill="#000000" fill-opacity="0.0" d="m49.48819 573.96063l439.24957 0" fill-rule="evenodd"/><path stroke="#434343" stroke-width="4.0" stroke-linejoin="round" stroke-linecap="butt" d="m49.48819 573.96063l439.24957 0" fill-rule="evenodd"/><path fill="#ffffff" d="m355.77643 528.65125l78.35416 45.31018l-78.35416 45.31012z" fill-rule="evenodd"/><path stroke="#434343" stroke-width="4.0" stroke-linejoin="round" stroke-linecap="butt" d="m355.77643 528.65125l78.35416 45.31018l-78.35416 45.31012z" fill-rule="evenodd"/><path fill="#ffffff" d="m434.13058 573.9614l0 0c0 -5.6539307 4.588623 -10.237366 10.248993 -10.237366l0 0c2.7182007 0 5.3250732 1.0785522 7.247162 2.9984741c1.9220581 1.9198608 3.0018616 4.5237427 3.0018616 7.2388916l0 0c0 5.6539307 -4.5886536 10.237305 -10.249023 10.237305l0 0c-5.66037 0 -10.248993 -4.583374 -10.248993 -10.237305z" fill-rule="evenodd"/><path stroke="#434343" stroke-width="4.0" stroke-linejoin="round" stroke-linecap="butt" d="m434.13058 573.9614l0 0c0 -5.6539307 4.588623 -10.237366 10.248993 -10.237366l0 0c2.7182007 0 5.3250732 1.0785522 7.247162 2.9984741c1.9220581 1.9198608 3.0018616 4.5237427 3.0018616 7.2388916l0 0c0 5.6539307 -4.5886536 10.237305 -10.249023 10.237305l0 0c-5.66037 0 -10.248993 -4.583374 -10.248993 -10.237305z" fill-rule="evenodd"/><path fill="#000000" fill-opacity="0.0" d="m222.5643 512.42255l317.59378 0" fill-rule="evenodd"/><path stroke="#434343" stroke-width="4.0" stroke-linejoin="round" stroke-linecap="butt" d="m222.5643 512.42255l317.59378 0" fill-rule="evenodd"/><path fill="#000000" fill-opacity="0.0" d="m484.50287 574.00275l55.656067 0" fill-rule="evenodd"/><path stroke="#434343" stroke-width="4.0" stroke-linejoin="round" stroke-linecap="butt" d="m484.50287 574.00275l55.656067 0" fill-rule="evenodd"/><path fill="#000000" fill-opacity="0.0" d="m535.9304 543.2129l238.58575 0" fill-rule="evenodd"/><path stroke="#434343" stroke-width="4.0" stroke-linejoin="round" stroke-linecap="butt" d="m535.9304 543.2129l238.58575 0" fill-rule="evenodd"/><path fill="#ffffff" d="m535.9304 611.78296l84.28406 0l0 0c46.548767 0 84.28406 -30.69989 84.28406 -68.57007c0 -37.87024 -37.73529 -68.5701 -84.28406 -68.5701l-84.28406 0z" fill-rule="evenodd"/><path stroke="#434343" stroke-width="4.0" stroke-linejoin="round" stroke-linecap="butt" d="m535.9304 611.78296l84.28406 0l0 0c46.548767 0 84.28406 -30.69989 84.28406 -68.57007c0 -37.87024 -37.73529 -68.5701 -84.28406 -68.5701l-84.28406 0z" fill-rule="evenodd"/><path fill="#000000" fill-opacity="0.0" d="m774.5171 273.35434l0 93.543304" fill-rule="evenodd"/><path stroke="#434343" stroke-width="4.0" stroke-linejoin="round" stroke-linecap="butt" d="m774.5171 273.35434l0 93.543304" fill-rule="evenodd"/><path fill="#000000" fill-opacity="0.0" d="m774.5171 440.95276l0 103.93701" fill-rule="evenodd"/><path stroke="#434343" stroke-width="4.0" stroke-linejoin="round" stroke-linecap="butt" d="m774.5171 440.95276l0 103.93701" fill-rule="evenodd"/><path fill="#000000" fill-opacity="0.0" d="m773.2913 366.89764l38.141724 0" fill-rule="evenodd"/><path stroke="#434343" stroke-width="4.0" stroke-linejoin="round" stroke-linecap="butt" d="m773.2913 366.89764l38.141724 0" fill-rule="evenodd"/><path fill="#000000" fill-opacity="0.0" d="m773.2913 440.95145l49.102356 0" fill-rule="evenodd"/><path stroke="#434343" stroke-width="4.0" stroke-linejoin="round" stroke-linecap="butt" d="m773.2913 440.95145l49.102356 0" fill-rule="evenodd"/><path fill="#ffffff" d="m797.01685 343.1935l0 0c93.096924 0 168.5669 30.698456 168.5669 68.566925c0 37.86847 -75.46997 68.566956 -168.5669 68.566956l0 0c35.484436 -44.5719 35.484436 -92.56198 0 -137.13388z" fill-rule="evenodd"/><path stroke="#434343" stroke-width="4.0" stroke-linejoin="round" stroke-linecap="butt" d="m797.01685 343.1935l0 0c93.096924 0 168.5669 30.698456 168.5669 68.566925c0 37.86847 -75.46997 68.566956 -168.5669 68.566956l0 0c35.484436 -44.5719 35.484436 -92.56198 0 -137.13388z" fill-rule="evenodd"/><path fill="#000000" fill-opacity="0.0" d="m965.5827 407.7756l49.102356 0" fill-rule="evenodd"/><path stroke="#434343" stroke-width="4.0" stroke-linejoin="round" stroke-linecap="butt" d="m965.5827 407.7756l49.102356 0" fill-rule="evenodd"/></g></svg>