<svg version="1.1" viewBox="0.0 0.0 1122.5196850393702 793.7007874015748" fill="none" stroke="none" stroke-linecap="square" stroke-miterlimit="10" xmlns:xlink="http://www.w3.org/1999/xlink" xmlns="http://www.w3.org/2000/svg"><clipPath id="g31749450611_0_39.0"><path d="m0 0l1122.5197 0l0 793.7008l-1122.5197 0l0 -793.7008z" clip-rule="nonzero"/></clipPath><g clip-path="url(#g31749450611_0_39.0)"><path fill="#ffffff" d="m0 0l1122.5197 0l0 793.7008l-1122.5197 0z" fill-rule="evenodd"/><path fill="#000000" fill-opacity="0.0" d="m391.97546 469.55804l116.35083 0" fill-rule="evenodd"/><path stroke="#434343" stroke-width="4.0" stroke-linejoin="round" stroke-linecap="butt" d="m391.97546 469.55804l116.35083 0" fill-rule="evenodd"/><path fill="#000000" fill-opacity="0.0" d="m391.97546 341.24106l116.35083 0" fill-rule="evenodd"/><path stroke="#434343" stroke-width="4.0" stroke-linejoin="round" stroke-linecap="butt" d="m391.97546 341.24106l116.35083 0" fill-rule="evenodd"/><path fill="#000000" fill-opacity="0.0" d="m513.43256 403.4349l484.8349 0" fill-rule="evenodd"/><path stroke="#434343" stroke-width="4.0" stroke-linejoin="round" stroke-linecap="butt" d="m513.43256 403.4349l484.8349 0" fill-rule="evenodd"/><path fill="#ffffff" d="m457.7961 260.55176l0 0c194.62363 0 352.39725 63.970978 352.39725 142.88315c0 78.9122 -157.77362 142.88315 -352.39725 142.88315l0 0c74.18198 -92.88107 74.18198 -192.8852 0 -285.7663z" fill-rule="evenodd"/><path stroke="#434343" stroke-width="4.0" stroke-linejoin="round" stroke-linecap="butt" d="m457.7961 260.55176l0 0c194.62363 0 352.39725 63.970978 352.39725 142.88315c0 78.9122 -157.77362 142.88315 -352.39725 142.88315l0 0c74.18198 -92.88107 74.18198 -192.8852 0 -285.7663z" fill-rule="evenodd"/><path fill="#000000" fill-opacity="0.0" d="m430.12106 260.79922c71.46811 77.395325 73.08853 201.67294 3.6663513 281.18814l-137.52332 -138.55246z" fill-rule="evenodd"/><path fill="#000000" fill-opacity="0.0" d="m430.12106 260.79922c71.46811 77.395325 73.08853 201.67294 3.6663513 281.18814" fill-rule="evenodd"/><path stroke="#434343" stroke-width="4.0" stroke-linejoin="round" stroke-linecap="butt" d="m430.12106 260.79922c71.46811 77.395325 73.08853 201.67294 3.6663513 281.18814" fill-rule="evenodd"/><path fill="#000000" fill-opacity="0.0" d="m277.78903 172.3512l138.70868 0l0 146.61417l-138.70868 0z" fill-rule="evenodd"/><path fill="#cc0000" d="m340.88556 204.46828l12.46875 0l30.375 78.14061l-13.453125 0l-7.96875 -21.28125l-30.328125 0l-7.96875 21.28125l-13.453125 0l30.328125 -78.14061zm18.046875 46.78125l-7.265625 -19.78125q-3.09375 -8.34375 -4.359375 -14.71875l-0.375 0q-1.21875 6.375 -4.3125 14.71875l-7.3125 19.78125l23.625 0z" fill-rule="nonzero"/><path fill="#000000" fill-opacity="0.0" d="m277.78903 474.7354l138.70868 0l0 146.6142l-138.70868 0z" fill-rule="evenodd"/><path fill="#cc0000" d="m319.69806 507.2275l25.125 0q11.765625 0 18.234375 2.71875q12.234375 5.0624695 12.234375 16.734344q0 7.453125 -4.6875 12.1875q-4.59375 4.546875 -12.140625 5.625l0 0.328125q8.4375 1.453125 13.359375 5.25q6.421875 5.015625 6.421875 13.3125q0 11.109375 -9.65625 17.109375q-7.3125 4.5 -20.484375 4.5l-28.40625 0l0 -77.765594zm12.1875 9.6093445l0 22.875l10.921875 0q19.21875 0 19.21875 -11.484375q0 -6.234375 -6.234375 -9.28125q-4.3125 -2.109375 -12.375 -2.109375l-11.53125 0zm0 32.578125l0 25.78125l13.546875 0q8.203125 0 12.703125 -2.390625q6.46875 -3.46875 6.46875 -10.359375q0 -7.546875 -8.53125 -10.96875q-5.203125 -2.0625 -12.9375 -2.0625l-11.25 0z" fill-rule="nonzero"/><path fill="#000000" fill-opacity="0.0" d="m876.0894 273.14594l138.70862 0l0 146.61417l-138.70862 0z" fill-rule="evenodd"/><path fill="#cc0000" d="m909.9359 305.63803l15.84375 0l19.6875 29.953125l19.6875 -29.953125l15.84375 0l-27.46875 38.484375l29.671875 39.28125l-16.03125 0l-21.703125 -30.515625l-21.703125 30.515625l-16.03125 0l29.671875 -39.28125l-27.46875 -38.484375z" fill-rule="nonzero"/></g></svg>