<svg version="1.1" viewBox="0.0 0.0 1122.5196850393702 793.7007874015748" fill="none" stroke="none" stroke-linecap="square" stroke-miterlimit="10" xmlns:xlink="http://www.w3.org/1999/xlink" xmlns="http://www.w3.org/2000/svg"><clipPath id="g31749450611_0_29.0"><path d="m0 0l1122.5197 0l0 793.7008l-1122.5197 0l0 -793.7008z" clip-rule="nonzero"/></clipPath><g clip-path="url(#g31749450611_0_29.0)"><path fill="#ffffff" d="m0 0l1122.5197 0l0 793.7008l-1122.5197 0z" fill-rule="evenodd"/><path fill="#000000" fill-opacity="0.0" d="m246.09592 396.8504l714.5476 0" fill-rule="evenodd"/><path stroke="#434343" stroke-width="4.0" stroke-linejoin="round" stroke-linecap="butt" d="m246.09592 396.8504l714.5476 0" fill-rule="evenodd"/><path fill="#ffffff" d="m386.23944 197.29358l344.21216 199.55682l-344.21216 199.55682z" fill-rule="evenodd"/><path stroke="#434343" stroke-width="4.0" stroke-linejoin="round" stroke-linecap="butt" d="m386.23944 197.29358l344.21216 199.55682l-344.21216 199.55682z" fill-rule="evenodd"/><path fill="#ffffff" d="m730.4516 396.8504l0 0c0 -24.901276 20.15802 -45.087738 45.02417 -45.087738l0 0c11.941162 0 23.39325 4.750305 31.836914 13.205902c8.443665 8.455597 13.187256 19.923828 13.187256 31.881836l0 0c0 24.901245 -20.15802 45.087708 -45.02417 45.087708l0 0c-24.86615 0 -45.02417 -20.186462 -45.02417 -45.087708z" fill-rule="evenodd"/><path stroke="#434343" stroke-width="4.0" stroke-linejoin="round" stroke-linecap="butt" d="m730.4516 396.8504l0 0c0 -24.901276 20.15802 -45.087738 45.02417 -45.087738l0 0c11.941162 0 23.39325 4.750305 31.836914 13.205902c8.443665 8.455597 13.187256 19.923828 13.187256 31.881836l0 0c0 24.901245 -20.15802 45.087708 -45.02417 45.087708l0 0c-24.86615 0 -45.02417 -20.186462 -45.02417 -45.087708z" fill-rule="evenodd"/><path fill="#000000" fill-opacity="0.0" d="m107.716064 214.19348l178.4252 0l0 189.79529l-178.4252 0z" fill-rule="evenodd"/><path fill="#cc0000" d="m190.67085 267.90112l12.46875 0l30.375 78.140625l-13.453125 0l-7.96875 -21.28125l-30.328125 0l-7.96875 21.28125l-13.453125 0l30.328125 -78.140625zm18.046875 46.78125l-7.265625 -19.78125q-3.09375 -8.34375 -4.359375 -14.71875l-0.375 0q-1.21875 6.375 -4.3125 14.71875l-7.3125 19.78125l23.625 0z" fill-rule="nonzero"/><path fill="#000000" fill-opacity="0.0" d="m836.3784 214.19348l178.42517 0l0 189.79529l-178.42517 0z" fill-rule="evenodd"/><path fill="#cc0000" d="m890.0832 268.27612l15.84375 0l19.6875 29.953125l19.6875 -29.953125l15.84375 0l-27.46875 38.484375l29.671875 39.28125l-16.03125 0l-21.703125 -30.515625l-21.703125 30.515625l-16.03125 0l29.671875 -39.28125l-27.46875 -38.484375z" fill-rule="nonzero"/></g></svg>